<?xml version="1.0" standalone="no"?>
<!DOCTYPE svg PUBLIC "-//W3C//DTD SVG 20010904//EN"
 "http://www.w3.org/TR/2001/REC-SVG-20010904/DTD/svg10.dtd">
<svg version="1.0" xmlns="http://www.w3.org/2000/svg"
 width="1024.000000pt" height="1024.000000pt" viewBox="0 0 1024.000000 1024.000000"
 preserveAspectRatio="xMidYMid meet">
<metadata>
Created by potrace 1.11, written by Peter Selinger 2001-2013
</metadata>
<g transform="translate(0.000000,1024.000000) scale(0.100000,-0.100000)"
fill="#000000" stroke="none">
<path d="M4997 7134 c-1 -1 -38 -5 -82 -9 -65 -5 -202 -29 -285 -50 -86 -20
-121 -31 -157 -46 -24 -10 -43 -16 -43 -14 0 2 -26 -8 -57 -22 -66 -29 -94
-40 -108 -43 -5 -1 -18 -9 -27 -17 -10 -9 -18 -13 -18 -10 0 5 -177 -94 -205
-115 -5 -4 -55 -41 -110 -82 -141 -104 -289 -251 -393 -391 -28 -38 -55 -74
-59 -80 -36 -46 -139 -229 -171 -305 -30 -70 -83 -210 -87 -230 -2 -8 -4 -15
-5 -15 -1 0 -3 -7 -5 -15 -2 -8 -6 -24 -9 -35 -12 -46 -28 -111 -32 -132 -2
-13 -6 -35 -9 -50 -18 -89 -28 -209 -28 -338 0 -116 8 -266 17 -300 3 -11 8
-36 10 -55 9 -60 17 -104 22 -120 3 -8 8 -28 11 -44 17 -105 138 -393 219
-522 24 -40 44 -76 44 -82 0 -6 3 -12 8 -14 4 -1 32 -37 63 -78 166 -222 367
-403 594 -534 44 -25 87 -51 95 -56 8 -6 22 -13 30 -16 8 -3 38 -17 65 -29 68
-32 127 -56 145 -60 8 -2 35 -11 59 -19 42 -15 143 -43 184 -52 10 -2 26 -5
35 -8 9 -3 40 -8 67 -12 28 -3 59 -8 70 -10 86 -18 356 -24 470 -11 60 7 70 8
155 21 103 16 382 97 404 117 6 5 18 9 28 9 10 0 18 5 18 10 0 6 7 10 15 10
20 0 188 88 277 146 356 230 641 581 791 974 27 70 63 180 71 220 3 14 12 54
20 90 14 66 21 114 33 230 13 119 6 374 -11 467 -3 12 -8 43 -12 70 -9 55 -8
49 -17 88 -4 17 -9 40 -11 52 -3 12 -23 77 -46 145 -158 475 -495 878 -941
1126 -20 11 -45 25 -55 30 -58 32 -267 117 -309 126 -5 1 -35 10 -65 18 -94
28 -209 50 -340 64 -51 6 -318 12 -323 8z m313 -514 c210 -30 368 -82 545
-180 411 -228 689 -632 761 -1108 14 -93 14 -369 -1 -442 -29 -148 -62 -269
-78 -288 -7 -8 -11 -17 -9 -19 1 -2 -5 -19 -13 -39 -8 -20 -15 -40 -15 -45 0
-4 -13 -31 -30 -59 -16 -28 -30 -53 -30 -56 0 -12 -98 -155 -151 -220 -110
-136 -291 -288 -429 -360 -30 -16 -57 -32 -60 -35 -3 -3 -32 -16 -65 -29 -33
-13 -64 -27 -70 -31 -5 -3 -23 -10 -40 -14 -35 -10 -36 -10 -55 -18 -21 -9
-166 -44 -215 -52 -84 -14 -388 -14 -465 1 -41 7 -90 16 -109 20 -148 26 -408
148 -561 263 -391 293 -611 733 -610 1216 0 55 2 114 4 130 6 55 18 140 23
160 3 11 8 38 13 60 24 113 139 391 170 410 5 3 8 11 5 16 -4 5 -2 9 4 9 5 0
13 9 16 20 3 11 12 26 18 32 7 7 32 40 56 73 163 219 401 397 667 498 106 41
158 54 284 76 41 7 82 14 90 16 34 6 299 2 350 -5z"/>
<path d="M4940 6191 l-28 -27 0 -575 c-1 -525 1 -576 16 -595 13 -16 547 -383
639 -439 9 -5 47 -31 85 -58 37 -26 70 -47 73 -47 3 0 35 -22 72 -48 100 -71
123 -81 161 -68 28 10 77 69 105 127 4 8 23 38 41 68 36 57 39 90 9 123 -9 10
-115 85 -237 167 -121 82 -282 190 -356 241 -74 50 -154 104 -177 118 l-43 27
0 330 c1 657 2 627 -21 655 -21 24 -25 25 -167 27 l-145 2 -27 -28z"/>
</g>
</svg>
